<?xml version="1.0" standalone="no"?>
<!DOCTYPE svg PUBLIC "-//W3C//DTD SVG 20010904//EN"
 "http://www.w3.org/TR/2001/REC-SVG-20010904/DTD/svg10.dtd">
<svg version="1.0" xmlns="http://www.w3.org/2000/svg"
 width="300.000000pt" height="654.000000pt" viewBox="0 0 300.000000 654.000000"
 preserveAspectRatio="xMidYMid meet">
<metadata>
Created by potrace 1.10, written by Peter Selinger 2001-2011
</metadata>
<g transform="translate(0.000000,654.000000) scale(0.100000,-0.100000)"
fill="#000000" stroke="none">
<path d="M1375 6519 c-231 -20 -476 -137 -645 -308 -74 -75 -176 -221 -221
-319 -39 -83 -74 -220 -89 -349 -13 -108 -2 -271 25 -389 58 -253 237 -503
472 -661 165 -110 326 -153 579 -153 345 0 573 94 796 329 172 180 243 327
282 577 28 178 16 337 -38 526 -51 176 -117 287 -248 418 -105 105 -180 158
-309 220 -126 59 -255 98 -369 110 -94 11 -106 11 -235 -1z m265 -154 c14 -1
32 -5 40 -8 8 -4 34 -8 57 -10 23 -1 45 -6 49 -10 4 -4 16 -7 26 -7 27 0 108
-40 108 -54 0 -13 -150 -108 -279 -176 l-86 -45 -3 -142 -3 -141 88 -64 c164
-118 200 -138 248 -138 24 0 46 4 49 8 3 5 18 9 33 10 45 1 167 22 175 30 4 4
12 41 18 82 5 41 20 130 32 197 19 100 26 123 40 123 36 0 155 -218 171 -316
3 -16 8 -36 11 -44 12 -29 17 -94 19 -234 2 -103 -1 -140 -10 -143 -7 -3 -69
52 -137 121 -69 69 -133 126 -143 126 -10 0 -72 -15 -138 -33 l-120 -33 -32
-65 c-29 -60 -93 -266 -93 -302 0 -16 138 -215 162 -234 16 -12 162 8 282 38
43 11 81 17 84 14 18 -18 -88 -153 -188 -239 -30 -26 -106 -74 -160 -101 -107
-54 -250 -93 -250 -67 0 4 36 68 80 141 44 73 80 140 80 149 0 8 -6 23 -14 31
-8 9 -43 63 -78 120 l-64 104 -178 0 -178 -1 -24 -25 c-13 -15 -24 -28 -24
-31 0 -3 -15 -29 -34 -58 -30 -47 -45 -67 -87 -116 -9 -11 5 -48 61 -164 40
-84 68 -154 63 -159 -20 -20 -206 58 -326 138 -112 74 -266 238 -244 260 4 3
52 -4 106 -16 55 -12 130 -24 168 -27 l68 -6 35 53 c19 29 59 87 89 128 l53
76 -25 85 c-14 47 -40 126 -59 176 l-32 91 -136 47 -135 47 -128 -133 c-163
-168 -162 -168 -161 33 0 79 3 156 7 170 14 55 38 114 68 168 18 31 42 78 56
105 39 78 72 126 87 126 16 0 28 -50 46 -185 6 -44 18 -114 27 -156 l16 -77
55 -11 c30 -6 58 -8 63 -5 5 3 17 0 28 -5 10 -6 34 -12 52 -14 19 -2 42 -7 52
-12 13 -5 27 -1 45 13 15 12 67 49 116 84 151 107 137 84 151 244 6 76 11 139
11 140 -1 1 -41 25 -90 53 -70 41 -224 140 -245 157 -2 2 2 16 8 32 12 29 45
51 101 67 4 1 64 11 170 29 21 4 152 -1 250 -9z"/>
<path d="M556 4205 c-53 -18 -96 -62 -96 -97 0 -35 44 -120 111 -213 43 -61
187 -337 233 -448 l15 -37 686 2 686 3 43 105 c59 145 136 293 213 408 81 121
93 144 93 180 0 37 -53 87 -107 101 -23 6 -395 9 -938 9 -722 0 -908 -3 -939
-13z"/>
<path d="M720 3262 c0 -4 -14 -13 -31 -21 -16 -7 -42 -31 -56 -52 -46 -70 -20
-152 62 -197 27 -15 106 -17 802 -20 723 -2 774 -1 810 15 100 48 112 180 21
244 -17 13 -42 22 -54 21 -13 -1 -26 3 -29 8 -7 12 -1525 14 -1525 2z"/>
<path d="M961 2836 c-8 -9 -12 -53 -11 -128 1 -62 -1 -120 -4 -128 -3 -8 -8
-80 -10 -160 -8 -206 -15 -292 -27 -306 -6 -7 -8 -17 -5 -22 8 -14 -40 -238
-74 -342 -43 -132 -84 -209 -153 -291 -45 -55 -56 -73 -46 -80 16 -10 1752
-12 1762 -2 4 3 -13 28 -38 54 -70 75 -132 179 -164 276 -31 92 -90 334 -95
387 -2 17 -6 38 -9 46 -9 20 -16 121 -22 310 -3 85 -8 189 -11 230 -4 41 -7
93 -8 115 l-1 40 -235 6 c-129 4 -371 7 -536 8 -249 1 -304 -1 -313 -13z"/>
<path d="M427 1208 c-14 -18 -28 -45 -32 -59 -7 -28 15 -91 41 -120 24 -26 10
-48 -67 -109 -121 -96 -209 -205 -209 -259 0 -10 -3 -21 -7 -25 -4 -3 -7 -14
-8 -24 -1 -9 -8 -52 -14 -95 -7 -43 -10 -82 -6 -85 4 -4 623 -7 1376 -7 l1370
0 -7 62 c-3 35 -7 76 -9 93 -1 17 -5 33 -9 37 -3 3 -6 12 -6 19 0 7 -9 38 -21
68 -24 65 -100 148 -201 220 -38 26 -68 51 -68 55 0 4 9 24 20 46 25 49 25
108 1 161 -15 34 -25 42 -52 47 -19 3 -491 6 -1050 7 l-1017 1 -25 -33z"/>
<path d="M74 270 c-31 -19 -64 -86 -64 -131 0 -19 10 -55 22 -79 l23 -45 1434
-3 c1095 -1 1437 1 1448 10 26 21 53 86 53 128 0 32 -7 48 -36 79 -19 22 -49
43 -65 46 -17 4 -652 8 -1410 8 -1211 2 -1383 0 -1405 -13z"/>
</g>
</svg>
